/* XPM */
static char *_669faeea9ae42378df2a280173f41d0[] = {
/* columns rows colors chars-per-pixel */
"16 16 31 1 ",
"  c None",
". c #63555F",
"X c #6D545A",
"o c #775256",
"O c #47596C",
"+ c #48596B",
"@ c #49596B",
"# c #4C5869",
"$ c #4F5868",
"% c #48596C",
"& c #5F5661",
"* c #5C5662",
"= c #595764",
"- c #525867",
"; c #505868",
": c #615560",
"> c #AB4A3D",
", c #AD4A3D",
"< c #B94837",
"1 c #BB4836",
"2 c #B3493A",
"3 c #B54939",
"4 c #B4493A",
"5 c #C34733",
"6 c #C54631",
"7 c #C74630",
"8 c #C64631",
"9 c #C74631",
"0 c #984D47",
"q c #85504F",
"w c #815151",
/* pixels */
"                ",
"                ",
"                ",
"                ",
"    @%:05668    ",
"    +;wq,>68    ",
"    @$-#o498    ",
"    @@O=2788    ",
"    @@%*1988    ",
"    @@O&<988    ",
"    @@ .3 88    ",
"    @@ X, 88    ",
"    @@    88    ",
"    @@@  888    ",
"     @@  88     ",
"                "
};
