/* XPM */
static char *_9e05ca67eb84677abc4b2ec4ea02145[] = {
/* columns rows colors chars-per-pixel */
"64 64 75 1 ",
"  c None",
". c #63555F",
"X c #65555E",
"o c #6D535A",
"O c #6E535A",
"+ c #6B545B",
"@ c #6D545A",
"# c #6C545B",
"$ c #6A545C",
"% c #735257",
"& c #755257",
"* c #7D5153",
"= c #7B5154",
"- c #705359",
"; c #46596C",
": c #47596C",
"> c #455A6D",
", c #48596B",
"< c #49596B",
"1 c #4A596B",
"2 c #4D5869",
"3 c #4E5869",
"4 c #4C596A",
"5 c #48596C",
"6 c #565765",
"7 c #545766",
"8 c #5F5661",
"9 c #5C5662",
"0 c #5D5662",
"q c #585764",
"w c #515867",
"e c #525867",
"r c #505868",
"t c #605560",
"y c #615560",
"u c #605660",
"i c #A94A3E",
"p c #A84B3F",
"a c #A94B3F",
"s c #AB4A3E",
"d c #AF4A3C",
"f c #BD4735",
"g c #BF4734",
"h c #BE4735",
"j c #B84837",
"k c #BA4836",
"l c #BA4837",
"z c #B1493B",
"x c #B74838",
"c c #C9462F",
"v c #C14733",
"b c #C24733",
"n c #C34733",
"m c #C74630",
"M c #C64631",
"N c #C74631",
"B c #C44632",
"V c #C54632",
"C c #C04734",
"Z c #C84630",
"A c #8E4F4B",
"S c #894F4D",
"D c #8B4F4C",
"F c #8C4F4C",
"G c #964D47",
"H c #9B4D45",
"J c #9D4C44",
"K c #924E49",
"L c #934E49",
"P c #944E48",
"I c #845050",
"U c #A54B41",
"Y c #A64B40",
"T c #A04C43",
"R c #A24C42",
/* pixels */
"                                                                ",
"                                                                ",
"                                                                ",
"                                                                ",
"                                                                ",
"                    <                     M                     ",
"                    <                                           ",
"                    <                      M                    ",
"                    <                      M                    ",
"                    <                      M                    ",
"                   <<                      M                    ",
"                   <                       MM                   ",
"                   <                       MM                   ",
"                  <<  <        uk           M                   ",
"                  <<  <      <:yhNM     MM  MM                  ",
"                  <   <     <<:XCMM     MM  MM                  ",
"                 <<   <<   <,::@bMMMM   M    MM                 ",
"                <<< < <<<<<53@LzMMMMMMMMM  M MM                 ",
"                <<  <  <<<,.TbZmMMMMMMMMM MM MMM                ",
"               <<< <<<<<<,-xZMNMMMMMMMMBMMMM  MM                ",
"               <<< <<<<<5+lZZVfgMMMMMNpxNMMM  MMM               ",
"               <<< <<<<5qdcCJ&8=BMMMZU*vMMMMM MMM               ",
"               <<<<<<<<<AZso4:>$nMNNR0HZMMMMMMMM                ",
"                <<<<<<58jG6:<<:#VMjSw#CMMMMMMMM                 ",
"                 <<<<<,ID35<<<50F=957iZMMMMMMMM                 ",
"                 <<<<<2#2,<<<<<<5::3PNMMMMMMMMM                 ",
"                <<<<<<1<<<<<<<<<,:eKVMMMMMMMMMMM                ",
"                <<<<<<<<<<<<<<<<rOYMMMMMMMMMMMMM                ",
"               <<<<<<<<<<<<<<<5tavZMMMMMMMMMMMMM                ",
"               <<<<<<<<<<<<<<<:#BNMMMMMMMMMMMMMMM               ",
"               <<<<<<<<<<<<<<<:+nMMMMMMMMMMMMMMMM               ",
"               <<<<<<<<<<<<<<<:+nMMMMMMMMMMMMMMMM               ",
"               <<<<<<<<<<<<<<<:+nMMMMMMMMMMMMMMMM               ",
"               <<<<<<<<<<<<<<<:+nMMMMMMMMMMMMMMMM               ",
"               <<<  <<<<<<<<<<:+nMMMMMMMMMM   MMM               ",
"               <<< <<  <<<<<<<:+nMMMMMMMM  M MMMM               ",
"               <<<< <<<  <<<<<:+nMMMMM  MMMM MMMM               ",
"               <<<< <<<<<<  <<:+nMMM  MMMMM  MMMM               ",
"               <<<<< <<<<<< <<:+nMM MMMMMMM MMMMM               ",
"               <<<<< <<<<<< <<:+nMMM MMMMMM MMMMM               ",
"               <<<<<  <<<<< <<:+nMM  MMMMM MMMMMM               ",
"               <<<<<< <<<    <:+nMM    MMM MMMMMM               ",
"               <<<<<<        <:+nMM       MMMMMMM               ",
"               <<<<<<<       <:+nMM       MMMMMMM               ",
"               <<<<<<<       <:+nM        MMMMMMM               ",
"               <<<<<<<<       :+nM       MMMMMMMM               ",
"               <<<<<<<<       :+nM       MMMMMMMM               ",
"               <<<<<<<<       :+nM      MMMMMMMMM               ",
"               <<<<<<<<<      ;+n       MMMMMMMMM               ",
"               <<<<<<<<<       +n       MMMMMMMMM               ",
"               <<<<<<<<<<      Ob      MMMMMMMMMM               ",
"               <<<<<<<<<<      %C      MMMMMMMMMM               ",
"               <<<<<<<<<<             MMMMMMMMMMM               ",
"               <<<<<<<<<<<            MMMMMMMMMMM               ",
"                <<<<<<<<<<            MMMMMMMMMM                ",
"                 <<<<<<<<<<          MMMMMMMMMM                 ",
"                   <<<<<<<<          MMMMMMMM                   ",
"                    <<<<<<<         MMMMMMMM                    ",
"                      <<<<<<        MMMMMM                      ",
"                       <<<<<        MMMM                        ",
"                         <<<<      MMMM                         ",
"                           <<      MM                           ",
"                                                                ",
"                                                                "
};
