/* XPM */
static char *_6848b3fdc0a4f52945e7734e70cb1af[] = {
/* columns rows colors chars-per-pixel */
"32 32 54 1 ",
"  c None",
". c #67545D",
"X c #65555E",
"o c #6B545B",
"O c #745257",
"+ c #745357",
"@ c #765256",
"# c #775256",
"$ c #7C5153",
"% c #46596C",
"& c #47596C",
"* c #455A6D",
"= c #48596B",
"- c #49596B",
"; c #4A596A",
": c #4A596B",
"> c #4C596A",
", c #48596C",
"< c #565765",
"1 c #595763",
"2 c #5A5663",
"3 c #5F5661",
"4 c #5C5662",
"5 c #585764",
"6 c #515867",
"7 c #615560",
"8 c #625560",
"9 c #605661",
"0 c #AB4A3E",
"q c #AC4A3D",
"w c #BD4735",
"e c #BF4734",
"r c #BE4735",
"t c #BA4836",
"y c #BB4836",
"u c #BA4837",
"i c #B1493B",
"p c #B3493A",
"a c #B74838",
"s c #B64939",
"d c #C14733",
"f c #C24733",
"g c #C74630",
"h c #C64631",
"j c #C74631",
"k c #C44632",
"l c #C54632",
"z c #C84630",
"x c #9B4D45",
"c c #994D46",
"v c #924E49",
"b c #934E49",
"n c #845050",
"m c #A34B41",
/* pixels */
"                                ",
"                                ",
"                                ",
"                                ",
"                                ",
"                                ",
"         -                      ",
"         -    *4yg  h h         ",
"        -- - ,2ndhhhh hh        ",
"        - --:#sghhhlhh h        ",
"        - -,+umcfzaqhh h        ",
"        --=<xO>9t0$pjhhh        ",
"        --=37&=6.5bjhhhh        ",
"        ---;=--:1vkhhhhh        ",
"        ------,4ijhhhhhh        ",
"        ------&7ejhhhhhh        ",
"        ------&7rjhhhhhh        ",
"        ------&7rjhhhh h        ",
"        ------&7rjhhhhhh        ",
"        ------&7rjhhhhhh        ",
"        ----- &7rj hhhhh        ",
"        ---   %7r    hhh        ",
"        ---    8w    hhh        ",
"        ----   Xy   hhhh        ",
"        ----   oa   hhhh        ",
"        ----   @   hhhhh        ",
"        -----      hhhhh        ",
"        -----      hhhhh        ",
"          ----    hhhh          ",
"           ---    hhh           ",
"             -    h             ",
"                                "
};
